<svg width="85" height="52" viewBox="0 0 85 52" fill="none" xmlns="http://www.w3.org/2000/svg">
<g clip-path="url(#clip0_2_4)">
<path d="M41.017 39.66C41.285 39.924 41.64 40.07 42.016 40.07C42.4 40.07 42.759 39.92 43.029 39.647L81.327 0.643996C81.08 0.570996 80.819 0.339996 80.548 0.339996H2.58202C2.28202 0.339996 1.99402 0.579996 1.72302 0.668996C1.76302 0.721996 1.80302 0.870996 1.85102 0.918996L41.017 39.66Z" fill="white"/>
<path d="M44.903 40.6404C44.135 41.4565 43.109 41.9049 42.016 41.9049C40.943 41.9049 39.931 41.4701 39.167 40.6802L0.000952827 0.192767C-0.0260472 0.164481 0.529954 0.134099 0.502954 0.104765C0.451954 0.324771 0.999954 0.553158 0.999954 0.789927V48.9157C0.999954 50.5008 1.06895 52 2.58196 52H80.548C82.061 52 85 50.5008 85 48.9157V0.789927C85 0.515443 84.105 0.251435 84.036 0L44.903 40.6404Z" fill="white"/>
</g>
<defs>
<clipPath id="clip0_2_4">
<rect width="85" height="52" fill="white"/>
</clipPath>
</defs>
</svg>
