<svg width="85" height="52" viewBox="0 0 85 52" fill="none" xmlns="http://www.w3.org/2000/svg">
<path d="M41.017 39.66C41.285 39.924 41.64 40.07 42.016 40.07C42.4 40.07 42.759 39.92 43.029 39.647L81.327 0.643996C81.08 0.570996 80.819 0.339996 80.548 0.339996H2.582C2.282 0.339996 1.994 0.579996 1.723 0.668996C1.763 0.721996 1.803 0.870996 1.851 0.918996L41.017 39.66Z" fill="#F9E0BB"/>
<path d="M44.903 41.497C44.135 42.276 43.109 42.704 42.016 42.704C40.943 42.704 39.931 42.289 39.167 41.535L0.000998603 2.889C-0.0260014 2.862 0.529999 2.833 0.502999 2.805C0.451999 3.015 0.999999 3.233 0.999999 3.459V49.396C0.999999 50.909 1.069 52.34 2.582 52.34H80.548C82.061 52.34 85 50.909 85 49.396V3.459C85 3.197 84.105 2.945 84.036 2.705L44.903 41.497Z" fill="#F9E0BB"/>
</svg>
