<svg width="42" height="43" viewBox="0 0 42 43" fill="none" xmlns="http://www.w3.org/2000/svg">
<g clip-path="url(#clip0_1_6)">
<path d="M10 0.990234C4.48867 0.990234 0 5.4789 0 10.9902V32.9902C0 38.5016 4.48867 42.9902 10 42.9902H32C37.5113 42.9902 42 38.5016 42 32.9902V10.9902C42 5.4789 37.5113 0.990234 32 0.990234H10ZM14.0059 9.0332C14.6339 9.0602 15.2106 9.41403 15.5586 9.95703C15.9546 10.575 16.5691 11.5342 17.3691 12.7852C18.0991 13.9262 18.15 15.3998 17.498 16.5898L16.0332 18.6738C15.6372 19.2378 15.5582 19.9597 15.8242 20.5957C16.2382 21.5857 17.0408 23.1072 18.4668 24.5332C19.8928 25.9592 21.4143 26.7618 22.4043 27.1758C23.0403 27.4418 23.7622 27.3628 24.3262 26.9668L26.4102 25.502C27.6002 24.85 29.0738 24.9019 30.2148 25.6309C31.4658 26.4309 32.425 27.0454 33.043 27.4414C33.586 27.7894 33.9398 28.3661 33.9668 28.9941C34.1208 32.5581 31.3596 34.002 30.5566 34.002C30.0006 34.002 23.3163 34.7617 15.7773 27.2227C8.23834 19.6837 8.99805 12.9994 8.99805 12.4434C8.99805 11.6404 10.4419 8.8792 14.0059 9.0332Z" fill="#F9E0BB"/>
</g>
<defs>
<clipPath id="clip0_1_6">
<rect width="42" height="43" fill="white"/>
</clipPath>
</defs>
</svg>
